<svg xmlns="http://www.w3.org/2000/svg" width="199.85" height="42.761" viewBox="0 0 199.85 42.761">
  <g id="Logo" transform="translate(-331.667 -191.038)">
    <g id="video-player" transform="translate(331.667 102.762)">
      <path id="Caminho_222" data-name="Caminho 222" d="M88.2,88.276H38.686a3.376,3.376,0,0,0-3.376,3.376v36.01H91.575V91.652A3.376,3.376,0,0,0,88.2,88.276Z" transform="translate(-30.809)" fill="#959cb5"/>
      <path id="Caminho_223" data-name="Caminho 223" d="M110.181,146.267H62.918a1.125,1.125,0,0,1-1.125-1.125V115.883a1.125,1.125,0,0,1,1.125-1.125h47.263a1.125,1.125,0,0,1,1.125,1.125v29.258A1.126,1.126,0,0,1,110.181,146.267Z" transform="translate(-53.916 -23.106)" fill="#393939"/>
      <rect id="Retângulo_131" data-name="Retângulo 131" width="6.752" height="4.501" transform="translate(20.255 110.782)" fill="#d29b6e"/>
      <path id="Caminho_224" data-name="Caminho 224" d="M145.791,181.427l.379,4.552a3.261,3.261,0,0,0,1.791,2.646l1.4.7a3.26,3.26,0,0,0,2.917,0l1.4-.7a3.26,3.26,0,0,0,1.791-2.646l.379-4.552a4.5,4.5,0,0,0-4.485-4.875h-1.094A4.5,4.5,0,0,0,145.791,181.427Z" transform="translate(-127.192 -77.023)" fill="#f0c087"/>
      <path id="Caminho_225" data-name="Caminho 225" d="M124.648,287.5l-4.443-1.481a1.125,1.125,0,0,1-.769-1.067l-3.376,3.062-3.376-3.062a1.125,1.125,0,0,1-.769,1.067L107.47,287.5a2.25,2.25,0,0,0-1.539,2.135v5.13h20.255v-5.13A2.251,2.251,0,0,0,124.648,287.5Z" transform="translate(-92.427 -171.601)" fill="#00c3ff"/>
      <path id="Caminho_226" data-name="Caminho 226" d="M64.142,392.914H1.125A1.125,1.125,0,0,1,0,391.789v-2.251a1.125,1.125,0,0,1,1.125-1.125H64.142a1.125,1.125,0,0,1,1.125,1.125v2.251A1.126,1.126,0,0,1,64.142,392.914Z" transform="translate(0 -261.877)" fill="#707487"/>
      <path id="Caminho_227" data-name="Caminho 227" d="M158.878,282.981a1.125,1.125,0,0,0-1.561-.312l-2.752,1.834-2.752-1.834a1.125,1.125,0,0,0-1.248,1.873l2.875,1.916v6.15h2.251v-6.15l2.875-1.916A1.124,1.124,0,0,0,158.878,282.981Z" transform="translate(-130.935 -169.447)" fill="#00aaf0"/>
      <g id="Grupo_48" data-name="Grupo 48" transform="translate(33.759 96.153)">
        <path id="Caminho_228" data-name="Caminho 228" d="M271.579,161.321h-1.125a1.126,1.126,0,0,1-1.007-.622l-1.94-3.879h-1.555a1.125,1.125,0,0,1,0-2.251H268.2a1.126,1.126,0,0,1,1.007.622l1.809,3.619,4.107-8.124a1.126,1.126,0,0,1,1-.618h7.828a1.125,1.125,0,0,1,0,2.251h-7.135l-4.239,8.385A1.124,1.124,0,0,1,271.579,161.321Z" transform="translate(-264.827 -150.068)" fill="#fbaf41"/>
        <path id="Caminho_229" data-name="Caminho 229" d="M366.747,180.486l1.688-2.11a1.126,1.126,0,0,0-1.758-1.407l-1.372,1.714-1.371-1.714a1.126,1.126,0,0,0-1.758,1.407l1.688,2.11-1.688,2.11A1.126,1.126,0,0,0,363.934,184l1.371-1.714L366.677,184a1.126,1.126,0,1,0,1.758-1.407Z" transform="translate(-349.551 -173.171)" fill="#fbaf41"/>
      </g>
      <path id="Caminho_230" data-name="Caminho 230" d="M293.561,267.078h-1.125a1.125,1.125,0,1,1,0-2.251h1.125a1.125,1.125,0,1,1,0,2.251Z" transform="translate(-254.175 -154.045)" fill="#7f8499"/>
      <g id="Grupo_49" data-name="Grupo 49" transform="translate(42.761 110.782)">
        <path id="Caminho_231" data-name="Caminho 231" d="M345.576,267.078h-9a1.125,1.125,0,1,1,0-2.251h9a1.125,1.125,0,0,1,0,2.251Z" transform="translate(-335.448 -264.827)" fill="#959cb5"/>
        <path id="Caminho_232" data-name="Caminho 232" d="M343.324,302.388h-6.752a1.125,1.125,0,1,1,0-2.251h6.752a1.125,1.125,0,1,1,0,2.251Z" transform="translate(-335.447 -295.636)" fill="#959cb5"/>
      </g>
      <path id="Caminho_233" data-name="Caminho 233" d="M293.561,302.388h-1.125a1.125,1.125,0,1,1,0-2.251h1.125a1.125,1.125,0,1,1,0,2.251Z" transform="translate(-254.175 -184.854)" fill="#7f8499"/>
      <path id="Caminho_234" data-name="Caminho 234" d="M220.864,390.665h-6.752a2.251,2.251,0,0,1-2.251-2.251h11.253A2.251,2.251,0,0,1,220.864,390.665Z" transform="translate(-184.855 -261.878)" fill="#5b5d6e"/>
      <path id="Caminho_235" data-name="Caminho 235" d="M151.718,189.325l-.778-.7a3.9,3.9,0,0,1-.993-2.646l-.21-4.552c-.113-2.436.873-4.526,2.182-4.817a4.445,4.445,0,0,0-.549-.058h-1.094a4.5,4.5,0,0,0-4.486,4.875l.379,4.552a3.261,3.261,0,0,0,1.791,2.646l1.4.7a3.244,3.244,0,0,0,2.59.118A.829.829,0,0,1,151.718,189.325Z" transform="translate(-127.192 -77.022)" fill="#e6af78"/>
      <g id="Grupo_50" data-name="Grupo 50" transform="translate(13.504 116.56)">
        <path id="Caminho_236" data-name="Caminho 236" d="M106.508,310.155a2.225,2.225,0,0,0-.577,1.47v5.13h3.376v-3.376a2.25,2.25,0,0,0-.9-1.8Z" transform="translate(-105.931 -310.155)" fill="#00aaf0"/>
        <path id="Caminho_237" data-name="Caminho 237" d="M241.144,310.155a2.225,2.225,0,0,1,.577,1.47v5.13h-3.376v-3.376a2.25,2.25,0,0,1,.9-1.8Z" transform="translate(-221.465 -310.155)" fill="#00aaf0"/>
      </g>
    </g>
    <path id="Caminho_1098" data-name="Caminho 1098" d="M-49.83,0h3.916V-16.06h-6.094v3.5h2.178Zm6.49-8.25c0,4.752,1.606,8.184,6.182,8.184S-30.976-3.5-30.976-8.25c0-4.708-1.606-8.14-6.182-8.14S-43.34-12.958-43.34-8.25Zm8.668,0c0,2.552-.264,4.664-2.486,4.664S-39.644-5.7-39.644-8.25c0-2.464.264-4.62,2.486-4.62S-34.672-10.714-34.672-8.25Zm5.676,0C-29-3.5-27.39-.066-22.814-.066S-16.632-3.5-16.632-8.25c0-4.708-1.606-8.14-6.182-8.14S-29-12.958-29-8.25Zm8.668,0c0,2.552-.264,4.664-2.486,4.664S-25.3-5.7-25.3-8.25c0-2.464.264-4.62,2.486-4.62S-20.328-10.714-20.328-8.25Zm5.676,0c0,4.752,1.606,8.184,6.182,8.184S-2.288-3.5-2.288-8.25c0-4.708-1.606-8.14-6.182-8.14S-14.652-12.958-14.652-8.25Zm8.668,0c0,2.552-.264,4.664-2.486,4.664S-10.956-5.7-10.956-8.25c0-2.464.264-4.62,2.486-4.62S-5.984-10.714-5.984-8.25ZM-.638-14.1h4.29V0h1.54V-14.1H9.46v-1.276H-.638Zm22.946,2.09h-1.54v6.534c0,2.926-1.562,4.334-3.806,4.334-2.2,0-3.652-1.364-3.652-4.026v-6.842H11.792v7.018C11.792-1.474,13.948.2,16.676.2a4.34,4.34,0,0,0,4.092-2.31V0h1.54ZM27.346-9.35v-6.93H25.828V0h1.518V-2.64A5.047,5.047,0,0,0,32.12.176c3.278,0,5.72-2.442,5.72-6.2s-2.42-6.16-5.72-6.16A5.1,5.1,0,0,0,27.346-9.35Zm8.932,3.322c0,3.036-1.936,4.862-4.466,4.862a4.488,4.488,0,0,1-4.466-4.84,4.488,4.488,0,0,1,4.466-4.84C34.342-10.846,36.278-9.086,36.278-6.028Zm9.526-4.84a3.928,3.928,0,0,1,4.18,4.2H41.536A4.147,4.147,0,0,1,45.8-10.868ZM51.37-3.806H49.742A3.719,3.719,0,0,1,45.87-1.122a4.2,4.2,0,0,1-4.334-4.29H51.5a10.531,10.531,0,0,0,.044-1.21,5.4,5.4,0,0,0-5.676-5.566c-3.454,0-5.9,2.354-5.9,6.182,0,3.806,2.486,6.182,5.9,6.182A5.281,5.281,0,0,0,51.37-3.806Z" transform="translate(462.667 213.667)" fill="#475677"/>
    <path id="Caminho_1099" data-name="Caminho 1099" d="M-60.85-3.5A3.38,3.38,0,0,0-57.43.06a3.237,3.237,0,0,0,3.22-2.1h-.82a2.445,2.445,0,0,1-2.4,1.49,2.7,2.7,0,0,1-2.7-2.95,2.7,2.7,0,0,1,2.7-2.96,2.432,2.432,0,0,1,2.4,1.51h.82a3.228,3.228,0,0,0-3.22-2.12A3.389,3.389,0,0,0-60.85-3.5Zm13.17.77a2.641,2.641,0,0,0-2.73-2.81,2.646,2.646,0,0,0-2.73,2.81A2.631,2.631,0,0,0-50.43.08,2.662,2.662,0,0,0-47.68-2.73Zm-4.75,0a1.986,1.986,0,0,1,2.01-2.2,1.993,1.993,0,0,1,2.02,2.2,2,2,0,0,1-2.03,2.2A1.979,1.979,0,0,1-52.43-2.73ZM-42.31,0h.69V-3.2a2.119,2.119,0,0,0-2.22-2.36A2,2,0,0,0-45.7-4.53v-.93h-.7V0h.7V-2.98c0-1.33.71-1.97,1.73-1.97a1.6,1.6,0,0,1,1.66,1.83Zm6.02-1.45c-.03-1.93-3.26-1.14-3.26-2.62,0-.48.46-.87,1.19-.87a1.166,1.166,0,0,1,1.32,1.07h.7a1.773,1.773,0,0,0-2-1.67c-1.15,0-1.92.67-1.92,1.48,0,2.05,3.28,1.26,3.28,2.61,0,.52-.44.94-1.22.94-.89,0-1.41-.43-1.47-1.03h-.72c.09,1,.96,1.62,2.2,1.62C-37.06.08-36.29-.57-36.29-1.45Zm1.52-.03c0,1.09.51,1.48,1.46,1.48h.75V-.6h-.64c-.63,0-.86-.21-.86-.88V-4.87h1.5v-.59h-1.5V-6.83h-.71v1.37h-.76v.59h.76Zm4.06-1.57c0-1.37.77-1.78,1.68-1.78h.19v-.73a1.881,1.881,0,0,0-1.87,1.07v-.97h-.7V0h.7Zm7.65-2.41h-.7v2.97c0,1.33-.71,1.97-1.73,1.97a1.6,1.6,0,0,1-1.66-1.83V-5.46h-.69v3.19A2.119,2.119,0,0,0-25.62.09,1.973,1.973,0,0,0-23.76-.96V0h.7ZM-21.46,0h.7V-5.46h-.7Zm.35-6.49a.508.508,0,0,0,.51-.52.5.5,0,0,0-.51-.51.5.5,0,0,0-.51.51A.508.508,0,0,0-21.11-6.49ZM-15.08,0h.69V-3.2a2.119,2.119,0,0,0-2.22-2.36,2,2,0,0,0-1.86,1.03v-.93h-.7V0h.7V-2.98c0-1.33.71-1.97,1.73-1.97a1.6,1.6,0,0,1,1.66,1.83Zm1.92-2.74A2.6,2.6,0,0,0-10.55.08a2.277,2.277,0,0,0,2.16-1.3V0h.7V-7.4h-.7v3.12a2.374,2.374,0,0,0-2.15-1.26A2.582,2.582,0,0,0-13.16-2.74Zm4.77.01a2.034,2.034,0,0,1-2.03,2.2,2.016,2.016,0,0,1-2.03-2.21,1.993,1.993,0,0,1,2.03-2.19A2.034,2.034,0,0,1-8.39-2.73Zm7.44,0A2.641,2.641,0,0,0-3.68-5.54,2.646,2.646,0,0,0-6.41-2.73,2.631,2.631,0,0,0-3.7.08,2.662,2.662,0,0,0-.95-2.73Zm-4.75,0a1.986,1.986,0,0,1,2.01-2.2,1.993,1.993,0,0,1,2.02,2.2A2,2,0,0,1-3.7-.53,1.979,1.979,0,0,1-5.7-2.73Zm13.91,0A2.641,2.641,0,0,0,5.48-5.54,2.646,2.646,0,0,0,2.75-2.73,2.631,2.631,0,0,0,5.46.08,2.662,2.662,0,0,0,8.21-2.73Zm-4.75,0a1.986,1.986,0,0,1,2.01-2.2,1.993,1.993,0,0,1,2.02,2.2A2,2,0,0,1,5.46-.53,1.979,1.979,0,0,1,3.46-2.73ZM16.01-1.45c-.03-1.93-3.26-1.14-3.26-2.62,0-.48.46-.87,1.19-.87a1.166,1.166,0,0,1,1.32,1.07h.7a1.773,1.773,0,0,0-2-1.67c-1.15,0-1.92.67-1.92,1.48,0,2.05,3.28,1.26,3.28,2.61,0,.52-.44.94-1.22.94-.89,0-1.41-.43-1.47-1.03h-.72c.09,1,.96,1.62,2.2,1.62C15.24.08,16.01-.57,16.01-1.45Zm3.65-3.49a1.786,1.786,0,0,1,1.9,1.91H17.72A1.885,1.885,0,0,1,19.66-4.94Zm2.53,3.21h-.74A1.69,1.69,0,0,1,19.69-.51a1.909,1.909,0,0,1-1.97-1.95h4.53a4.787,4.787,0,0,0,.02-.55,2.455,2.455,0,0,0-2.58-2.53,2.587,2.587,0,0,0-2.68,2.81A2.6,2.6,0,0,0,19.69.08,2.4,2.4,0,0,0,22.19-1.73Zm6.09-3.73h-.7v2.97c0,1.33-.71,1.97-1.73,1.97a1.6,1.6,0,0,1-1.66-1.83V-5.46H23.5v3.19A2.119,2.119,0,0,0,25.72.09,1.973,1.973,0,0,0,27.58-.96V0h.7ZM32.8,0h.7V-4.87h1.27v-.59H33.5v-.38c0-.79.3-1.13,1.23-1.13v-.6c-1.38,0-1.93.56-1.93,1.73v.38h-.76v.59h.76Zm7.8-5.46h-.7v2.97c0,1.33-.71,1.97-1.73,1.97a1.6,1.6,0,0,1-1.66-1.83V-5.46h-.69v3.19A2.119,2.119,0,0,0,38.04.09,1.973,1.973,0,0,0,39.9-.96V0h.7Zm1.8,3.98C42.4-.39,42.91,0,43.86,0h.75V-.6h-.64c-.63,0-.86-.21-.86-.88V-4.87h1.5v-.59h-1.5V-6.83H42.4v1.37h-.76v.59h.76Zm8.09-3.98h-.7v2.97c0,1.33-.71,1.97-1.73,1.97A1.6,1.6,0,0,1,46.4-2.35V-5.46h-.69v3.19A2.119,2.119,0,0,0,47.93.09,1.973,1.973,0,0,0,49.79-.96V0h.7Zm2.3,2.41c0-1.37.77-1.78,1.68-1.78h.19v-.73a1.881,1.881,0,0,0-1.87,1.07v-.97h-.7V0h.7Zm8.06.32a2.641,2.641,0,0,0-2.73-2.81,2.646,2.646,0,0,0-2.73,2.81A2.631,2.631,0,0,0,58.1.08,2.662,2.662,0,0,0,60.85-2.73Zm-4.75,0a1.986,1.986,0,0,1,2.01-2.2,1.993,1.993,0,0,1,2.02,2.2A2,2,0,0,1,58.1-.53,1.979,1.979,0,0,1,56.1-2.73Z" transform="translate(470.667 228.667)" fill="#475677"/>
  </g>
</svg>
