<svg xmlns="http://www.w3.org/2000/svg" width="201" height="43.132" viewBox="0 0 201 43.132"><defs><style>.a{fill:#959cb5;}.b{fill:#393939;}.c{fill:#d29b6e;}.d{fill:#f0c087;}.e{fill:#00c3ff;}.f{fill:#707487;}.g{fill:#00aaf0;}.h{fill:#fbaf41;}.i{fill:#7f8499;}.j{fill:#5b5d6e;}.k{fill:#e6af78;}.l,.n{fill:#fff;}.l{font-size:22px;font-family:Poppins-Bold, Poppins;font-weight:700;}.m,.n{font-family:Poppins-Light, Poppins;font-weight:300;}.n{font-size:10px;}</style></defs><g transform="translate(-331.667 -190.667)"><g transform="translate(331.667 102.762)"><path class="a" d="M88.2,88.276H38.686a3.376,3.376,0,0,0-3.376,3.376v36.01H91.575V91.652A3.376,3.376,0,0,0,88.2,88.276Z" transform="translate(-30.809)"/><path class="b" d="M110.181,146.267H62.918a1.125,1.125,0,0,1-1.125-1.125V115.883a1.125,1.125,0,0,1,1.125-1.125h47.263a1.125,1.125,0,0,1,1.125,1.125v29.258A1.126,1.126,0,0,1,110.181,146.267Z" transform="translate(-53.916 -23.106)"/><rect class="c" width="6.752" height="4.501" transform="translate(20.255 110.782)"/><path class="d" d="M145.791,181.427l.379,4.552a3.261,3.261,0,0,0,1.791,2.646l1.4.7a3.26,3.26,0,0,0,2.917,0l1.4-.7a3.26,3.26,0,0,0,1.791-2.646l.379-4.552a4.5,4.5,0,0,0-4.485-4.875h-1.094A4.5,4.5,0,0,0,145.791,181.427Z" transform="translate(-127.192 -77.023)"/><path class="e" d="M124.648,287.5l-4.443-1.481a1.125,1.125,0,0,1-.769-1.067l-3.376,3.062-3.376-3.062a1.125,1.125,0,0,1-.769,1.067L107.47,287.5a2.25,2.25,0,0,0-1.539,2.135v5.13h20.255v-5.13A2.251,2.251,0,0,0,124.648,287.5Z" transform="translate(-92.427 -171.601)"/><path class="f" d="M64.142,392.914H1.125A1.125,1.125,0,0,1,0,391.789v-2.251a1.125,1.125,0,0,1,1.125-1.125H64.142a1.125,1.125,0,0,1,1.125,1.125v2.251A1.126,1.126,0,0,1,64.142,392.914Z" transform="translate(0 -261.877)"/><path class="g" d="M158.878,282.981a1.125,1.125,0,0,0-1.561-.312l-2.752,1.834-2.752-1.834a1.125,1.125,0,0,0-1.248,1.873l2.875,1.916v6.15h2.251v-6.15l2.875-1.916A1.124,1.124,0,0,0,158.878,282.981Z" transform="translate(-130.935 -169.447)"/><g transform="translate(33.759 96.153)"><path class="h" d="M271.579,161.321h-1.125a1.126,1.126,0,0,1-1.007-.622l-1.94-3.879h-1.555a1.125,1.125,0,0,1,0-2.251H268.2a1.126,1.126,0,0,1,1.007.622l1.809,3.619,4.107-8.124a1.126,1.126,0,0,1,1-.618h7.828a1.125,1.125,0,0,1,0,2.251h-7.135l-4.239,8.385A1.124,1.124,0,0,1,271.579,161.321Z" transform="translate(-264.827 -150.068)"/><path class="h" d="M366.747,180.486l1.688-2.11a1.126,1.126,0,0,0-1.758-1.407l-1.372,1.714-1.371-1.714a1.126,1.126,0,0,0-1.758,1.407l1.688,2.11-1.688,2.11A1.126,1.126,0,0,0,363.934,184l1.371-1.714L366.677,184a1.126,1.126,0,1,0,1.758-1.407Z" transform="translate(-349.551 -173.171)"/></g><path class="i" d="M293.561,267.078h-1.125a1.125,1.125,0,1,1,0-2.251h1.125a1.125,1.125,0,1,1,0,2.251Z" transform="translate(-254.175 -154.045)"/><g transform="translate(42.761 110.782)"><path class="a" d="M345.576,267.078h-9a1.125,1.125,0,1,1,0-2.251h9a1.125,1.125,0,0,1,0,2.251Z" transform="translate(-335.448 -264.827)"/><path class="a" d="M343.324,302.388h-6.752a1.125,1.125,0,1,1,0-2.251h6.752a1.125,1.125,0,1,1,0,2.251Z" transform="translate(-335.447 -295.636)"/></g><path class="i" d="M293.561,302.388h-1.125a1.125,1.125,0,1,1,0-2.251h1.125a1.125,1.125,0,1,1,0,2.251Z" transform="translate(-254.175 -184.854)"/><path class="j" d="M220.864,390.665h-6.752a2.251,2.251,0,0,1-2.251-2.251h11.253A2.251,2.251,0,0,1,220.864,390.665Z" transform="translate(-184.855 -261.878)"/><path class="k" d="M151.718,189.325l-.778-.7a3.9,3.9,0,0,1-.993-2.646l-.21-4.552c-.113-2.436.873-4.526,2.182-4.817a4.445,4.445,0,0,0-.549-.058h-1.094a4.5,4.5,0,0,0-4.486,4.875l.379,4.552a3.261,3.261,0,0,0,1.791,2.646l1.4.7a3.244,3.244,0,0,0,2.59.118A.829.829,0,0,1,151.718,189.325Z" transform="translate(-127.192 -77.022)"/><g transform="translate(13.504 116.56)"><path class="g" d="M106.508,310.155a2.225,2.225,0,0,0-.577,1.47v5.13h3.376v-3.376a2.25,2.25,0,0,0-.9-1.8Z" transform="translate(-105.931 -310.155)"/><path class="g" d="M241.144,310.155a2.225,2.225,0,0,1,.577,1.47v5.13h-3.376v-3.376a2.25,2.25,0,0,1,.9-1.8Z" transform="translate(-221.465 -310.155)"/></g></g><text class="l" transform="translate(462.667 213.667)"><tspan x="-52.602" y="0">1000</tspan><tspan class="m" y="0">Tube</tspan></text><text class="n" transform="translate(470.667 228.667)"><tspan x="-61.33" y="0">Construindo o seu futuro</tspan></text></g></svg>