<svg xmlns="http://www.w3.org/2000/svg" width="50" height="50" viewBox="0 0 50 50">
  <g id="Icon" transform="translate(-1035 -1196)">
    <path id="Caminho_21" data-name="Caminho 21" d="M960,402.387a23.418,23.418,0,0,1-16.116-6.452H947.1v-1.612h-4.839a.8.8,0,0,0-.806.806v.462l-.085.076c.027.031.057.059.085.091v4.21h1.613v-2.587A25.029,25.029,0,0,0,960,404q.418,0,.832-.015l-.051-1.611c-.26.008-.52.013-.781.013Zm0,0" transform="translate(100 842)" fill="#34b4b3"/>
    <path id="Caminho_22" data-name="Caminho 22" d="M971.029,399.629l.762,1.421q.721-.385,1.414-.819l-.853-1.368q-.648.4-1.323.766Zm0,0" transform="translate(100 842)" fill="#34b4b3"/>
    <path id="Caminho_23" data-name="Caminho 23" d="M968.246,400.893l.568,1.509c.508-.191,1.017-.4,1.511-.627l-.666-1.468q-.7.315-1.413.586Zm0,0" transform="translate(100 842)" fill="#34b4b3"/>
    <path id="Caminho_24" data-name="Caminho 24" d="M973.624,398.01l.941,1.311c.442-.319.875-.65,1.294-1l-1.023-1.247c-.394.322-.8.634-1.212.931Zm0,0" transform="translate(100 842)" fill="#34b4b3"/>
    <path id="Caminho_25" data-name="Caminho 25" d="M965.322,401.78l.364,1.57c.533-.123,1.064-.265,1.579-.422l-.469-1.543c-.485.147-.977.28-1.474.395Zm0,0" transform="translate(100 842)" fill="#34b4b3"/>
    <path id="Caminho_26" data-name="Caminho 26" d="M962.306,402.275l.157,1.605q.82-.08,1.62-.213l-.261-1.591q-.75.125-1.516.2Zm0,0" transform="translate(100 842)" fill="#34b4b3"/>
    <path id="Caminho_27" data-name="Caminho 27" d="M981.3,388.67l1.467.668c.226-.5.436-1,.626-1.508l-1.508-.569c-.179.478-.376.948-.585,1.409Zm0,0" transform="translate(100 842)" fill="#34b4b3"/>
    <path id="Caminho_28" data-name="Caminho 28" d="M975.986,396.072l1.1,1.177q.6-.559,1.155-1.155l-1.176-1.1c-.348.372-.709.731-1.081,1.081Zm0,0" transform="translate(100 842)" fill="#34b4b3"/>
    <path id="Caminho_29" data-name="Caminho 29" d="M983.073,382.844l1.592.261q.131-.8.213-1.619l-1.6-.159q-.075.765-.2,1.517Zm0,0" transform="translate(100 842)" fill="#34b4b3"/>
    <path id="Caminho_30" data-name="Caminho 30" d="M982.378,385.817l1.544.469c.158-.521.3-1.053.422-1.578l-1.57-.365c-.115.5-.247.989-.4,1.474Zm0,0" transform="translate(100 842)" fill="#34b4b3"/>
    <path id="Caminho_31" data-name="Caminho 31" d="M978.075,393.842l1.246,1.024c.346-.42.678-.853.995-1.294l-1.31-.941q-.445.619-.931,1.211Zm0,0" transform="translate(100 842)" fill="#34b4b3"/>
    <path id="Caminho_32" data-name="Caminho 32" d="M979.857,391.36l1.369.855c.288-.464.564-.94.819-1.414l-1.422-.761q-.361.674-.766,1.32Zm0,0" transform="translate(100 842)" fill="#34b4b3"/>
    <path id="Caminho_33" data-name="Caminho 33" d="M983.387,379c0,.261-.005.521-.013.781l1.611.051c.01-.276.015-.554.015-.832Zm0,0" transform="translate(100 842)" fill="#34b4b3"/>
    <path id="Caminho_34" data-name="Caminho 34" d="M935,379h1.613c0-.261.005-.521.013-.781l-1.611-.051c-.01.276-.015.554-.015.832Zm0,0" transform="translate(100 842)" fill="#34b4b3"/>
    <path id="Caminho_35" data-name="Caminho 35" d="M941.92,364.165l-1.246-1.024c-.345.42-.677.853-.995,1.3l1.311.94c.3-.414.608-.819.93-1.211Zm0,0" transform="translate(100 842)" fill="#34b4b3"/>
    <path id="Caminho_36" data-name="Caminho 36" d="M940.137,366.647l-1.368-.853q-.432.693-.82,1.415l1.423.761q.361-.674.765-1.323Zm0,0" transform="translate(100 842)" fill="#34b4b3"/>
    <path id="Caminho_37" data-name="Caminho 37" d="M944.009,361.934l-1.1-1.177q-.594.558-1.155,1.155l1.177,1.1c.35-.372.709-.733,1.081-1.081Zm0,0" transform="translate(100 842)" fill="#34b4b3"/>
    <path id="Caminho_38" data-name="Caminho 38" d="M948.961,358.377l-.762-1.422q-.721.387-1.413.819l.854,1.369c.431-.27.872-.524,1.321-.766Zm0,0" transform="translate(100 842)" fill="#34b4b3"/>
    <path id="Caminho_39" data-name="Caminho 39" d="M954.659,356.225l-.369-1.57c-.531.124-1.058.266-1.576.424l.469,1.543q.729-.222,1.476-.4Zm0,0" transform="translate(100 842)" fill="#34b4b3"/>
    <path id="Caminho_40" data-name="Caminho 40" d="M946.37,359.993l-.942-1.309c-.442.317-.873.65-1.293.994l1.024,1.247c.393-.323.8-.635,1.211-.932Zm0,0" transform="translate(100 842)" fill="#34b4b3"/>
    <path id="Caminho_41" data-name="Caminho 41" d="M951.739,357.113l-.569-1.508c-.506.191-1.013.4-1.508.626l.668,1.468c.461-.21.932-.4,1.409-.586Zm0,0" transform="translate(100 842)" fill="#34b4b3"/>
    <path id="Caminho_42" data-name="Caminho 42" d="M957.673,355.727l-.159-1.6q-.817.081-1.62.215l.263,1.591c.5-.084,1.006-.15,1.516-.2Zm0,0" transform="translate(100 842)" fill="#34b4b3"/>
    <path id="Caminho_43" data-name="Caminho 43" d="M935.119,376.535l1.6.159q.075-.766.2-1.517l-1.592-.261q-.13.8-.212,1.619Zm0,0" transform="translate(100 842)" fill="#34b4b3"/>
    <path id="Caminho_44" data-name="Caminho 44" d="M937.225,368.675c-.225.5-.436,1-.627,1.511l1.509.569q.272-.719.587-1.413Zm0,0" transform="translate(100 842)" fill="#34b4b3"/>
    <path id="Caminho_45" data-name="Caminho 45" d="M935.65,373.314l1.57.364q.174-.746.4-1.476l-1.543-.468c-.157.518-.3,1.049-.422,1.58Zm0,0" transform="translate(100 842)" fill="#34b4b3"/>
    <path id="Caminho_46" data-name="Caminho 46" d="M960,355.613a23.418,23.418,0,0,1,16.116,6.452H972.9v1.612h4.839a.806.806,0,0,0,.806-.806v-.462l.085-.076c-.027-.031-.057-.059-.085-.091v-4.21h-1.613v2.587A25.029,25.029,0,0,0,960,354c-.28,0-.557,0-.834.014l.055,1.612c.258-.009.519-.013.779-.013Zm0,0" transform="translate(100 842)" fill="#34b4b3"/>
    <path id="Caminho_47" data-name="Caminho 47" d="M964.032,391.9V381.419h8.537l4.6,4.6a.806.806,0,0,0,.57.236.8.8,0,0,0,.309-.061.8.8,0,0,0,.5-.745v-4.033h2.42a.806.806,0,0,0,.806-.806V366.1a.807.807,0,0,0-.806-.807H956.774a.806.806,0,0,0-.806.807v10.484h-8.537l-4.6-4.6a.806.806,0,0,0-1.376.57v4.033h-2.42a.806.806,0,0,0-.806.806V391.9a.806.806,0,0,0,.806.807h24.194a.806.806,0,0,0,.806-.807Zm-6.451-25h22.58v12.9h-2.419a.807.807,0,0,0-.807.807v2.892l-3.462-3.462a.8.8,0,0,0-.57-.237h-8.871v-2.419a.806.806,0,0,0-.806-.806h-5.645Zm4.838,24.194h-22.58v-12.9h2.419a.807.807,0,0,0,.807-.807v-2.892l3.462,3.462a.8.8,0,0,0,.57.237h15.322Zm0,0" transform="translate(100 842)" fill="#34b4b3"/>
    <rect id="Retângulo_17" data-name="Retângulo 17" width="1.613" height="1.613" transform="translate(1068.064 1218.581)" fill="#34b4b3"/>
    <rect id="Retângulo_18" data-name="Retângulo 18" width="1.613" height="6.452" transform="translate(1068.064 1210.516)" fill="#34b4b3"/>
    <path id="Caminho_48" data-name="Caminho 48" d="M949.516,383.032a1.616,1.616,0,0,1,1.912-1.586,1.613,1.613,0,0,1,.644,2.895,4,4,0,0,0-1.749,3.226v.3h1.612v-.3a2.4,2.4,0,0,1,1.081-1.918,3.226,3.226,0,1,0-5.113-2.617v.807h1.613Zm0,0" transform="translate(100 842)" fill="#34b4b3"/>
    <rect id="Retângulo_19" data-name="Retângulo 19" width="1.613" height="1.613" transform="translate(1050.323 1230.677)" fill="#34b4b3"/>
  </g>
</svg>
