<svg xmlns="http://www.w3.org/2000/svg" width="71.198" height="56.348" viewBox="0 0 71.198 56.348">
  <g id="_" data-name="&quot;" transform="translate(-1217.208 -4793.298)" opacity="0.15">
    <path id="Caminho_1096" data-name="Caminho 1096" d="M16.333,0A16.311,16.311,0,1,0,29.655,25.692a28.194,28.194,0,0,1-28.15,27.69,1.483,1.483,0,1,0,0,2.966A31.175,31.175,0,0,0,32.644,25.208v-8.9A16.329,16.329,0,0,0,16.333,0Z" transform="translate(1249.852 4849.646) rotate(180)" fill="#e0474e"/>
    <path id="Caminho_1097" data-name="Caminho 1097" d="M16.333,0A16.311,16.311,0,1,0,29.655,25.692a28.2,28.2,0,0,1-28.15,27.69,1.483,1.483,0,0,0,0,2.966A31.175,31.175,0,0,0,32.645,25.208v-8.9A16.329,16.329,0,0,0,16.333,0Z" transform="translate(1288.406 4849.646) rotate(180)" fill="#e0474e"/>
  </g>
</svg>
