<svg xmlns="http://www.w3.org/2000/svg" width="46.174" height="50" viewBox="0 0 46.174 50">
  <g id="Icon" transform="translate(-1237 -1196)">
    <path id="Caminho_14" data-name="Caminho 14" d="M980.124,299.02a7.4,7.4,0,0,0-4.738-2.119,2.981,2.981,0,0,0,.156-.954,2.933,2.933,0,0,0-2.906-2.952,7.151,7.151,0,0,0-2.525.744v-2.982a1.328,1.328,0,0,0-1.326-1.326h-2.491a7.147,7.147,0,0,0,.744-2.525,2.952,2.952,0,0,0-5.9,0,7.147,7.147,0,0,0,.744,2.525h-2.491a1.328,1.328,0,0,0-1.326,1.326v2.637a1.328,1.328,0,0,0,1.742,1.262,3.076,3.076,0,0,1,.823-.2,1.491,1.491,0,0,1,0,2.981,3.044,3.044,0,0,1-.823-.2,1.328,1.328,0,0,0-1.742,1.262v2.637a1.328,1.328,0,0,0,1.326,1.326h2.491a7.146,7.146,0,0,0-.744,2.525,2.952,2.952,0,0,0,5.9,0,7.141,7.141,0,0,0-.744-2.525h2.491a1.328,1.328,0,0,0,1.326-1.326v-2.982a7.145,7.145,0,0,0,2.525.744,2.861,2.861,0,0,0,1.776-.618c3.522.211,6.623,1.227,6.623,9.447a40.581,40.581,0,0,1-2.923,14.852.73.73,0,0,0,.387.958.72.72,0,0,0,.285.059.731.731,0,0,0,.673-.446,42.129,42.129,0,0,0,3.04-15.423c0-4.147-.776-7-2.373-8.708Zm-10.444-2.645a.73.73,0,0,0-1.03.666V301h-3.47a.731.731,0,0,0-.666,1.031,9.977,9.977,0,0,1,1.062,2.956,1.491,1.491,0,0,1-2.98,0,9.977,9.977,0,0,1,1.062-2.956.731.731,0,0,0-.666-1.031h-3.47v-2.318a3.874,3.874,0,0,0,1.1.216,2.952,2.952,0,0,0,0-5.9,3.879,3.879,0,0,0-1.1.216v-2.318h3.47a.73.73,0,0,0,.666-1.031,9.977,9.977,0,0,1-1.062-2.956,1.491,1.491,0,0,1,2.98,0,9.977,9.977,0,0,1-1.062,2.956.73.73,0,0,0,.666,1.031h3.47v3.96a.73.73,0,0,0,1.03.666,10.012,10.012,0,0,1,2.956-1.063,1.491,1.491,0,0,1,0,2.981,9.98,9.98,0,0,1-2.956-1.062Zm0,0" transform="translate(300.677 912)" fill="#e0474e"/>
    <path id="Caminho_15" data-name="Caminho 15" d="M977.6,325.306a.731.731,0,0,0-1.009.224c-.9,1.413-2.315,3.1-3.956,3.1-2.974,0-6.207-5.718-7.686-13.6a.732.732,0,0,0-.718-.6h-9.642a.732.732,0,0,0-.718.6,41.158,41.158,0,0,1-.958,4.007l-3.3-1.376a1.326,1.326,0,0,0-1.734,1.735l2.438,5.84c-.976,1.615-2.437,3.391-4.137,3.391-1.982,0-4.087-2.473-5.776-6.783a40.8,40.8,0,0,1-2.624-14.117c0-4.121.789-6.776,2.409-8.117,1.386-1.146,3.32-1.376,5.991-1.376,3.963,0,7.074.4,8.065,5.453a.73.73,0,0,0,.717.589h3.3a.73.73,0,1,0,0-1.461h-2.71a7.159,7.159,0,0,0-3.48-5.02,12.406,12.406,0,0,0-5.89-1.022c-5.2,0-9.861.838-9.861,10.954a42.337,42.337,0,0,0,2.725,14.65c1.947,4.973,4.482,7.711,7.136,7.711,1.688,0,3.336-1.108,4.818-3.221l2.637,6.317a1.313,1.313,0,0,0,1.178.814h.048a1.309,1.309,0,0,0,1.182-.732l1.284-2.562,2.261,2.26a1.309,1.309,0,0,0,1.85,0l1.744-1.744a1.308,1.308,0,0,0,0-1.851l-2.261-2.26,2.563-1.284a1.325,1.325,0,0,0-.084-2.408l-9.135-3.814c.355-1.191.664-2.434.921-3.708h8.438a34.061,34.061,0,0,0,3.271,9.5c1.7,3.071,3.688,4.695,5.735,4.695,1.824,0,3.618-1.3,5.189-3.774a.731.731,0,0,0-.224-1.009Zm-15.554,4.99-1.529,1.529-2.5-2.5.51-1.018,1.019-.51Zm-2.691-4.032h0l-1.693.848a.729.729,0,0,0-.326.326l-2.46,4.91-5.515-13.211,13.21,5.515Zm0,0" transform="translate(300.677 912)" fill="#e0474e"/>
    <path id="Caminho_16" data-name="Caminho 16" d="M972.635,303.8a2.5,2.5,0,1,0,2.5,2.5,2.5,2.5,0,0,0-2.5-2.5Zm0,3.539a1.039,1.039,0,1,1,1.039-1.039,1.04,1.04,0,0,1-1.039,1.039Zm0,0" transform="translate(300.677 912)" fill="#e0474e"/>
    <path id="Caminho_17" data-name="Caminho 17" d="M972.635,311.923a2.5,2.5,0,1,0,2.5,2.5,2.5,2.5,0,0,0-2.5-2.5Zm0,3.54a1.039,1.039,0,1,1,1.039-1.039,1.041,1.041,0,0,1-1.039,1.039Zm0,0" transform="translate(300.677 912)" fill="#e0474e"/>
    <path id="Caminho_18" data-name="Caminho 18" d="M979.2,310.36a2.5,2.5,0,1,0-2.5,2.5,2.5,2.5,0,0,0,2.5-2.5Zm-3.54,0A1.039,1.039,0,1,1,976.7,311.4a1.04,1.04,0,0,1-1.039-1.039Zm0,0" transform="translate(300.677 912)" fill="#e0474e"/>
    <path id="Caminho_19" data-name="Caminho 19" d="M966.071,310.36a2.5,2.5,0,1,0,2.5-2.5,2.5,2.5,0,0,0-2.5,2.5Zm3.539,0a1.038,1.038,0,1,1-1.039-1.039,1.04,1.04,0,0,1,1.039,1.039Zm0,0" transform="translate(300.677 912)" fill="#e0474e"/>
    <path id="Caminho_20" data-name="Caminho 20" d="M950.783,311.075a.731.731,0,0,0,.569,1.346,2.257,2.257,0,0,0-.879-4.336h-2.031v-2.032a2.258,2.258,0,0,0-4.515,0v2.032H941.9a2.257,2.257,0,1,0,0,4.514h2.032v2.032a2.258,2.258,0,0,0,4.515,0v-2.763a.731.731,0,0,0-1.462,0v2.763a.8.8,0,1,1-1.591,0v-2.763a.731.731,0,0,0-.731-.73H941.9a.8.8,0,1,1,0-1.592h2.763a.731.731,0,0,0,.731-.731v-2.762a.8.8,0,1,1,1.591,0v2.762a.731.731,0,0,0,.731.731h2.762a.8.8,0,0,1,.31,1.529Zm0,0" transform="translate(300.677 912)" fill="#e0474e"/>
  </g>
</svg>
